# xmcd CD database file
#
# Track frame offsets:
#	150
#	16687
#	43606
#	69913
#	100287
#	129403
#	154525
#	191859
#	224825
#
# Disc length: 3348 seconds
#
# Revision: 0
# Processed by: cddbd v1.5.1PL2 Copyright (c) Steve Scherf et al.
# Submitted via: CDex 1.51
#
DISCID=780d1209
DTITLE=Kyle Eastwood - Paris Blue
DYEAR=2005
DGENRE=Jazz
TTITLE0=Big Noise
TTITLE1=Marrakech
TTITLE2=Muse
TTITLE3=Le Pont Royal
TTITLE4=Solferino
TTITLE5=Cosmo
TTITLE6=Paris Blue
TTITLE7=Big Noise Remix
TTITLE8=Marrakech Remix
EXTD=YEAR: 2005
EXTT0=
EXTT1=
EXTT2=
EXTT3=
EXTT4=
EXTT5=
EXTT6=
EXTT7=
EXTT8=
PLAYORDER=
